# xmcd CD database file
#
# Track frame offsets:
#	150
#	14620
#	27540
#	37430
#	48055
#	57777
#	69135
#	84450
#	98885
#	112167
#	126780
#	137595
#	154852
#	169955
#	181760
#	194037
#	205765
#	219595
#	229572
#	238870
#	249752
#	264440
#
# Disc length: 3677 seconds
#
# Revision: 0
# Processed by: cddbd v1.5PL3 Copyright (c) Steve Scherf et al.
# Submitted via: CDex 1.50
#
DISCID=370e5b16
DTITLE=Various Artist - Late Night Guitar For Lovers
DYEAR=1994
DGENRE=Jazz
TTITLE0=Hello
TTITLE1=The First Time Ever I Saw Your Face
TTITLE2=Annie's Song
TTITLE3=Here, There And Everywhere
TTITLE4=Elvira Madigan
TTITLE5=Mona Lisa
TTITLE6=Lady In Red
TTITLE7=You've Got A Friend
TTITLE8=And I Love Her So
TTITLE9=Love Story
TTITLE10=Romanza
TTITLE11=Nights In White Satin
TTITLE12=I Know Him So Well
TTITLE13=Michelle
TTITLE14=Without You
TTITLE15=The Greatest Love Of All
TTITLE16=Three Times A Lady
TTITLE17=If
TTITLE18=Windmills Of Your Mind
TTITLE19=Feelings
TTITLE20=Londonberry Air (Danny Boy)
TTITLE21=The Long And Winding Road
EXTD=YEAR: 1994
EXTT0=
EXTT1=
EXTT2=
EXTT3=
EXTT4=
EXTT5=
EXTT6=
EXTT7=
EXTT8=
EXTT9=
EXTT10=
EXTT11=
EXTT12=
EXTT13=
EXTT14=
EXTT15=
EXTT16=
EXTT17=
EXTT18=
EXTT19=
EXTT20=
EXTT21=
PLAYORDER=
